<svg version="1.0" xmlns="http://www.w3.org/2000/svg" preserveAspectRatio="xMidYMid meet" viewBox="218.1 318.57 587.92 386.55">
<metadata>
Created by potrace 1.15, written by Peter Selinger 2001-2017
</metadata>
<g transform="translate(0.000000,1024.000000) scale(0.100000,-0.100000)" fill="#000000" stroke="none">
<path d="M3795 7050 c-459 -5 -744 -12 -785 -20 -190 -33 -331 -95 -470 -208 -162 -130 -278 -326 -326 -547 -24 -113 -33 -426 -33 -1155 0 -846 8 -1058 43 -1192 49 -191 136 -340 274 -469 125 -117 273 -194 445 -230 132 -29 721 -39 2217 -40 1273 -1 1874 5 2030 22 425 47 745 339 836 763 24 113 33 439 34 1221 0 736 -7 942 -36 1083 -35 170 -121 337 -236 458 -93 97 -171 155 -282 209 -145 71 -222 85 -506 95 -369 13 -2388 19 -3205 10z m3060 -180 c390 -10 439 -17 581 -85 170 -82 326 -255 379 -422 16 -49 16 -55 1 -78 -11 -16 -37 -31 -79 -44 -188 -58 -582 -78 -1687 -87 -399 -3 -733 -7 -743 -9 -32 -6 -1679 14 -1997 25 -634 21 -854 52 -888 123 -16 33 -7 69 45 168 96 187 271 323 488 380 71 19 119 22 410 29 498 10 3091 10 3490 0z m-4434 -784 c92 -39 339 -68 729 -86 403 -18 1717 -32 2530 -25 1447 11 1844 29 2093 97 60 16 81 18 90 9 16 -16 23 -1729 7 -1918 -20 -253 -86 -410 -235 -559 -76 -76 -105 -97 -185 -137 -52 -25 -124 -53 -160 -62 -126 -30 -449 -37 -1845 -38 -1944 -3 -2366 4 -2489 38 -258 70 -437 226 -527 459 -63 164 -61 129 -66 1186 -3 530 -2 983 2 1007 7 48 9 49 56 29z"/>
<path d="M2921 5719 c-62 -12 -160 -60 -206 -100 -56 -49 -110 -138 -131 -216 -22 -79 -23 -133 -11 -658 9 -399 18 -533 43 -615 49 -168 194 -307 369 -355 45 -12 144 -19 388 -27 353 -12 414 -8 520 32 117 44 222 175 247 309 14 77 13 1224 -1 1293 -36 170 -162 295 -329 326 -71 14 -831 23 -889 11z m882 -191 c20 -10 37 -23 37 -31 0 -20 -61 -72 -118 -101 -64 -32 -163 -63 -246 -77 -178 -30 -417 33 -528 139 -43 41 -48 68 -15 82 13 6 186 9 427 7 352 -2 410 -5 443 -19z m-975 -199 c69 -61 209 -132 317 -160 115 -30 288 -36 395 -15 149 31 235 65 353 143 37 25 71 42 75 38 4 -4 7 -275 7 -603 0 -562 -1 -600 -19 -646 -25 -66 -75 -119 -139 -147 -51 -22 -60 -22 -332 -20 -357 3 -439 11 -521 51 -97 48 -159 127 -190 245 -19 69 -41 1097 -25 1138 6 15 13 27 17 27 3 0 31 -23 62 -51z"/>
<path d="M6695 5720 c-246 -5 -275 -8 -325 -28 -125 -49 -206 -127 -252 -239 l-23 -58 -3 -627 c-2 -534 0 -637 13 -693 19 -83 46 -135 98 -192 50 -54 91 -81 172 -114 60 -24 60 -24 410 -21 374 3 447 11 549 56 110 49 207 144 258 252 49 105 57 170 68 549 14 505 13 729 -4 792 -35 131 -108 223 -219 278 -121 59 -123 59 -742 45z m610 -182 c35 -16 31 -40 -15 -82 -172 -155 -520 -187 -753 -70 -168 85 -180 136 -37 154 98 13 776 11 805 -2z m185 -202 c9 -34 10 -149 0 -540 -6 -273 -15 -521 -20 -550 -24 -147 -124 -263 -260 -300 -77 -21 -146 -25 -460 -28 -268 -2 -276 -1 -327 21 -58 26 -113 80 -140 138 -17 35 -18 88 -21 642 -1 332 1 608 6 613 4 4 44 -15 87 -42 167 -105 354 -155 550 -147 201 9 373 73 492 182 32 30 63 54 69 55 6 0 17 -20 24 -44z"/>
<path d="M4682 5710 c-160 -33 -285 -149 -328 -307 -18 -63 -19 -113 -19 -668 0 -653 0 -655 57 -769 59 -118 184 -209 323 -236 41 -8 180 -10 440 -8 426 4 431 5 543 77 109 71 183 197 202 345 12 94 12 1103 0 1188 -26 181 -122 303 -285 364 -46 17 -87 19 -470 21 -231 1 -439 -3 -463 -7z m865 -179 c63 -25 53 -52 -40 -112 -124 -80 -319 -122 -475 -101 -139 19 -289 77 -355 138 -47 44 -29 68 62 84 77 14 771 6 808 -9z m177 -203 c3 -13 6 -277 6 -588 0 -623 -1 -640 -61 -726 -39 -57 -113 -100 -200 -114 -44 -8 -180 -10 -395 -8 -283 4 -336 7 -375 22 -66 24 -123 77 -156 144 l-28 57 -3 608 c-2 499 0 608 11 613 7 2 47 -18 88 -45 82 -55 190 -101 295 -128 51 -13 109 -17 224 -17 139 1 164 3 243 27 103 32 201 79 277 136 30 22 58 40 61 41 4 0 9 -10 13 -22z"/>
</g>
</svg>